<mxfile host="app.diagrams.net" agent="Mozilla/5.0 (Windows NT 10.0; Win64; x64) AppleWebKit/537.36 (KHTML, like Gecko) Chrome/134.0.0.0 Safari/537.36" version="26.1.2">
  <diagram name="第 1 页" id="3vhOLQLNE8I7fv4MBt1G">
    <mxGraphModel dx="910" dy="459" grid="1" gridSize="10" guides="1" tooltips="1" connect="1" arrows="1" fold="1" page="1" pageScale="1" pageWidth="827" pageHeight="1169" math="0" shadow="0">
      <root>
        <mxCell id="0" />
        <mxCell id="1" parent="0" />
        <mxCell id="RUPy-7fyj6zI6rWzjdou-1" value="" style="rounded=0;whiteSpace=wrap;html=1;" vertex="1" parent="1">
          <mxGeometry x="70" y="110" width="180" height="140" as="geometry" />
        </mxCell>
        <mxCell id="RUPy-7fyj6zI6rWzjdou-2" value="DMRL&lt;br&gt;版本：001" style="text;html=1;align=center;verticalAlign=middle;whiteSpace=wrap;rounded=0;" vertex="1" parent="1">
          <mxGeometry x="100" y="120" width="60" height="30" as="geometry" />
        </mxCell>
        <mxCell id="RUPy-7fyj6zI6rWzjdou-3" value="DM&amp;nbsp;&lt;div&gt;版本：001&lt;/div&gt;&lt;div&gt;已定稿&lt;/div&gt;" style="rounded=0;whiteSpace=wrap;html=1;" vertex="1" parent="1">
          <mxGeometry x="80" y="180" width="120" height="60" as="geometry" />
        </mxCell>
        <mxCell id="RUPy-7fyj6zI6rWzjdou-4" value="" style="endArrow=classic;html=1;rounded=0;" edge="1" parent="1">
          <mxGeometry width="50" height="50" relative="1" as="geometry">
            <mxPoint x="270" y="210" as="sourcePoint" />
            <mxPoint x="370" y="210" as="targetPoint" />
          </mxGeometry>
        </mxCell>
        <mxCell id="RUPy-7fyj6zI6rWzjdou-5" value="DMRL升版" style="text;html=1;align=center;verticalAlign=middle;resizable=0;points=[];autosize=1;strokeColor=none;fillColor=none;" vertex="1" parent="1">
          <mxGeometry x="280" y="168" width="80" height="30" as="geometry" />
        </mxCell>
        <mxCell id="RUPy-7fyj6zI6rWzjdou-6" value="" style="rounded=0;whiteSpace=wrap;html=1;" vertex="1" parent="1">
          <mxGeometry x="400" y="113" width="180" height="140" as="geometry" />
        </mxCell>
        <mxCell id="RUPy-7fyj6zI6rWzjdou-7" value="DMRL&lt;br&gt;版本：002" style="text;html=1;align=center;verticalAlign=middle;whiteSpace=wrap;rounded=0;" vertex="1" parent="1">
          <mxGeometry x="430" y="123" width="60" height="30" as="geometry" />
        </mxCell>
        <mxCell id="RUPy-7fyj6zI6rWzjdou-8" value="DM&amp;nbsp;&lt;div&gt;版本：001&lt;/div&gt;&lt;div&gt;已定稿&lt;/div&gt;" style="rounded=0;whiteSpace=wrap;html=1;" vertex="1" parent="1">
          <mxGeometry x="410" y="183" width="120" height="60" as="geometry" />
        </mxCell>
      </root>
    </mxGraphModel>
  </diagram>
</mxfile>
